# xmcd
#
# Track frame offsets:
#	150
#	15276
#	32943
#	49318
#	72355
#	92569
#
# Disc length: 1588 seconds
#
# Revision: 1
# Processed by: cddbd v1.5.2PL0 Copyright (c) Steve Scherf et al.
# Submitted via: audiograbber 1.83.01
#
DISCID=46063206
DTITLE=Molella - Baby! [CDs Remixes)
DYEAR=2003
DGENRE=House
TTITLE0=Baby! (Disco Man Radio)
TTITLE1=Baby! (Boogie Man Radio)
TTITLE2=Baby! (Chycos Radio)
TTITLE3=Baby! (Disco Man Mixx)
TTITLE4=Baby! (Boogie Man Mixx)
TTITLE5=Baby! (Chycos Mix)
EXTD=
EXTT0=
EXTT1=
EXTT2=
EXTT3=
EXTT4=
EXTT5=
PLAYORDER=
